<svg width="1440" height="261" viewBox="0 0 1440 261" fill="none" xmlns="http://www.w3.org/2000/svg">
<line x1="317" y1="39.5" x2="1117" y2="39.5" stroke="#090909" stroke-opacity="0.1"/>
<line x1="317" y1="219.5" x2="1117" y2="219.5" stroke="#090909" stroke-opacity="0.1"/>
<rect x="127" y="96" width="60" height="60" fill="white" fill-opacity="0.1"/>
<rect x="187" y="148" width="7" height="14" transform="rotate(90 187 148)" fill="white" fill-opacity="0.1"/>
<rect x="187" y="155" width="7" height="14" transform="rotate(180 187 155)" fill="white" fill-opacity="0.1"/>
<rect x="127" y="103" width="7" height="14" transform="rotate(-90 127 103)" fill="white" fill-opacity="0.1"/>
<rect x="127" y="96" width="7" height="14" fill="white" fill-opacity="0.1"/>
<line x1="187.5" y1="1" x2="187.5" y2="260" stroke="white" stroke-opacity="0.1"/>
<line x1="127.5" y1="1" x2="127.5" y2="260" stroke="white" stroke-opacity="0.1"/>
<line x1="1440" y1="0.5" x2="1.96701e-07" y2="0.500028" stroke="white" stroke-opacity="0.1"/>
<line x1="1440" y1="40.5" x2="1.96701e-07" y2="40.5" stroke="white" stroke-opacity="0.1"/>
<line x1="1440" y1="220.5" x2="1.96701e-07" y2="220.5" stroke="white" stroke-opacity="0.1"/>
<line x1="1440" y1="260.5" x2="1.96701e-07" y2="260.5" stroke="white" stroke-opacity="0.1"/>
<rect x="1247" y="96" width="60" height="60" fill="white" fill-opacity="0.1"/>
<rect x="1307" y="148" width="7" height="14" transform="rotate(90 1307 148)" fill="white" fill-opacity="0.1"/>
<rect x="1307" y="155" width="7" height="14" transform="rotate(180 1307 155)" fill="white" fill-opacity="0.1"/>
<rect x="1247" y="103" width="7" height="14" transform="rotate(-90 1247 103)" fill="white" fill-opacity="0.1"/>
<rect x="1247" y="96" width="7" height="14" fill="white" fill-opacity="0.1"/>
<line x1="1307.5" y1="1" x2="1307.5" y2="260" stroke="white" stroke-opacity="0.1"/>
<line x1="1247.5" y1="1" x2="1247.5" y2="260" stroke="white" stroke-opacity="0.1"/>
</svg>
