<svg width="1440" height="1068" viewBox="0 0 1440 1068" fill="none" xmlns="http://www.w3.org/2000/svg">
<rect width="1440" height="644" fill="#090909"/>
<mask id="mask0_1167_2163" style="mask-type:alpha" maskUnits="userSpaceOnUse" x="297" y="230" width="838" height="838">
<rect x="297" y="230" width="838" height="838" fill="url(#paint0_linear_1167_2163)"/>
</mask>
<g mask="url(#mask0_1167_2163)">
<rect x="297" y="230" width="838" height="838" rx="419" fill="white" fill-opacity="0.02"/>
<rect x="297.5" y="230.5" width="837" height="837" rx="418.5" stroke="white" stroke-opacity="0.06"/>
</g>
<g opacity="0.07">
<rect x="237.318" y="44" width="1" height="76" rx="0.5" fill="white" fill-opacity="0.06"/>
<rect x="237.318" y="44" width="1" height="76" rx="0.5" fill="url(#paint1_linear_1167_2163)"/>
</g>
<g opacity="0.07">
<rect x="1201.32" y="44" width="1" height="76" rx="0.5" fill="white" fill-opacity="0.06"/>
<rect x="1201.32" y="44" width="1" height="76" rx="0.5" fill="url(#paint2_linear_1167_2163)"/>
</g>
<g opacity="0.07">
<rect x="716.318" y="44" width="1" height="76" rx="0.5" fill="white" fill-opacity="0.06"/>
<rect x="716.318" y="44" width="1" height="76" rx="0.5" fill="url(#paint3_linear_1167_2163)"/>
</g>
<g opacity="0.2">
<rect width="6.66667" height="13.3333" transform="matrix(-4.37114e-08 1 1 4.37114e-08 713 140.666)" fill="white"/>
<rect width="6.66667" height="13.3333" transform="matrix(1 0 0 -1 713 147.333)" fill="white"/>
</g>
<rect x="260" y="140" width="440" height="1" rx="0.5" fill="white" fill-opacity="0.06"/>
<rect x="740" y="140" width="440" height="1" rx="0.5" fill="white" fill-opacity="0.06"/>
<g opacity="0.07">
<rect x="6" y="140" width="214" height="1" rx="0.5" fill="white" fill-opacity="0.06"/>
<rect x="6" y="140" width="214" height="1" rx="0.5" fill="url(#paint4_linear_1167_2163)"/>
</g>
<g opacity="0.07">
<rect x="1220" y="140" width="214" height="1" rx="0.5" fill="white" fill-opacity="0.06"/>
<rect x="1220" y="140" width="214" height="1" rx="0.5" fill="url(#paint5_linear_1167_2163)"/>
</g>
<rect x="236" y="161" width="1" height="376" rx="0.5" fill="white" fill-opacity="0.06"/>
<rect x="1203" y="161" width="1" height="376" rx="0.5" fill="white" fill-opacity="0.06"/>
<rect x="260" y="557" width="440" height="1" rx="0.5" fill="white" fill-opacity="0.06"/>
<rect x="740" y="557" width="440" height="1" rx="0.5" fill="white" fill-opacity="0.06"/>
<g opacity="0.07">
<rect x="6" y="557" width="214" height="1" rx="0.5" fill="white" fill-opacity="0.06"/>
<rect x="6" y="557" width="214" height="1" rx="0.5" fill="url(#paint6_linear_1167_2163)"/>
</g>
<g opacity="0.07">
<rect x="1220" y="557" width="214" height="1" rx="0.5" fill="white" fill-opacity="0.06"/>
<rect x="1220" y="557" width="214" height="1" rx="0.5" fill="url(#paint7_linear_1167_2163)"/>
</g>
<g opacity="0.2">
<rect width="6.66667" height="13.3333" transform="matrix(-4.37114e-08 1 1 4.37114e-08 232 140.666)" fill="white"/>
<rect width="6.66667" height="13.3333" transform="matrix(1 0 0 -1 232 147.333)" fill="white"/>
</g>
<g opacity="0.2">
<rect width="6.66667" height="13.3333" transform="matrix(-4.37114e-08 1 1 4.37114e-08 1196 557.666)" fill="white"/>
<rect width="6.66667" height="13.3333" transform="matrix(1 0 0 -1 1196 564.333)" fill="white"/>
</g>
<defs>
<linearGradient id="paint0_linear_1167_2163" x1="716" y1="230" x2="716" y2="1068" gradientUnits="userSpaceOnUse">
<stop stop-color="white"/>
<stop offset="0.42" stop-opacity="0"/>
</linearGradient>
<linearGradient id="paint1_linear_1167_2163" x1="237.818" y1="44" x2="237.818" y2="120" gradientUnits="userSpaceOnUse">
<stop stop-color="white" stop-opacity="0"/>
<stop offset="1" stop-color="white"/>
</linearGradient>
<linearGradient id="paint2_linear_1167_2163" x1="1201.82" y1="44" x2="1201.82" y2="120" gradientUnits="userSpaceOnUse">
<stop stop-color="white" stop-opacity="0"/>
<stop offset="1" stop-color="white"/>
</linearGradient>
<linearGradient id="paint3_linear_1167_2163" x1="716.818" y1="44" x2="716.818" y2="120" gradientUnits="userSpaceOnUse">
<stop stop-color="white" stop-opacity="0"/>
<stop offset="1" stop-color="white"/>
</linearGradient>
<linearGradient id="paint4_linear_1167_2163" x1="6" y1="140.5" x2="220" y2="140.5" gradientUnits="userSpaceOnUse">
<stop stop-color="white" stop-opacity="0"/>
<stop offset="1" stop-color="white"/>
</linearGradient>
<linearGradient id="paint5_linear_1167_2163" x1="1434" y1="140.5" x2="1220" y2="140.5" gradientUnits="userSpaceOnUse">
<stop stop-color="white" stop-opacity="0"/>
<stop offset="1" stop-color="white"/>
</linearGradient>
<linearGradient id="paint6_linear_1167_2163" x1="6" y1="557.5" x2="220" y2="557.5" gradientUnits="userSpaceOnUse">
<stop stop-color="white" stop-opacity="0"/>
<stop offset="1" stop-color="white"/>
</linearGradient>
<linearGradient id="paint7_linear_1167_2163" x1="1434" y1="557.5" x2="1220" y2="557.5" gradientUnits="userSpaceOnUse">
<stop stop-color="white" stop-opacity="0"/>
<stop offset="1" stop-color="white"/>
</linearGradient>
</defs>
</svg>
