<svg width="1440" height="425" viewBox="0 0 1440 425" fill="none" xmlns="http://www.w3.org/2000/svg">
<line y1="0.5" x2="1440" y2="0.5" stroke="#090909" stroke-opacity="0.1"/>
<line x1="1407.5" y1="1" x2="1407.5" y2="425" stroke="#090909" stroke-opacity="0.1"/>
<line y1="424.5" x2="1440" y2="424.5" stroke="#090909" stroke-opacity="0.1"/>
<rect width="9" height="18" transform="matrix(-4.37114e-08 1 1 4.37114e-08 27 416)" fill="#090909"/>
<rect width="9" height="18" transform="matrix(1 0 0 -1 27 425)" fill="#090909"/>
<rect x="27" y="10" width="9" height="18" transform="rotate(-90 27 10)" fill="#090909"/>
<rect x="27" y="1" width="9" height="18" fill="#090909"/>
<rect x="721" y="416" width="9" height="18" transform="rotate(90 721 416)" fill="#090909"/>
<rect x="721" y="425" width="9" height="18" transform="rotate(-180 721 425)" fill="#090909"/>
<rect width="9" height="18" transform="matrix(4.37114e-08 -1 -1 -4.37114e-08 721 10)" fill="#090909"/>
<rect width="9" height="18" transform="matrix(-1 0 0 1 721 1)" fill="#090909"/>
</svg>
